{
  "accessors": [
    {
      "bufferView": 2,
      "componentType": 5126,
      "count": 9213,
      "max": [
        49.736305236816406,
        61.92626190185547,
        2.2969932556152344
      ],
      "min": [
        -49.67509460449219,
        -42.28989791870117,
        -1.4537479877471924
      ],
      "type": "VEC3"
    },
    {
      "bufferView": 2,
      "byteOffset": 110556,
      "componentType": 5126,
      "count": 9213,
      "max": [
        0.999965488910675,
        1.0,
        1.0
      ],
      "min": [
        -0.9999656081199646,
        -1.0,
        -1.0
      ],
      "type": "VEC3"
    },
    {
      "bufferView": 3,
      "componentType": 5126,
      "count": 9213,
      "max": [
        1.0,
        1.0,
        1.0,
        1.0
      ],
      "min": [
        -1.0,
        -1.0,
        -1.0,
        -1.0
      ],
      "type": "VEC4"
    },
    {
      "bufferView": 1,
      "componentType": 5126,
      "count": 9213,
      "max": [
        0.9902475476264954,
        0.99951171875
      ],
      "min": [
        0.00048828125,
        0.00048828125
      ],
      "type": "VEC2"
    },
    {
      "bufferView": 1,
      "byteOffset": 73704,
      "componentType": 5126,
      "count": 9213,
      "max": [
        0.9902475476264954,
        0.99951171875
      ],
      "min": [
        0.00048828125,
        0.00048828125
      ],
      "type": "VEC2"
    },
    {
      "bufferView": 1,
      "byteOffset": 147408,
      "componentType": 5126,
      "count": 9213,
      "max": [
        0.9902475476264954,
        0.99951171875
      ],
      "min": [
        0.00048828125,
        0.00048828125
      ],
      "type": "VEC2"
    },
    {
      "bufferView": 0,
      "componentType": 5125,
      "count": 46992,
      "type": "SCALAR"
    }
  ],
  "asset": {
    "extras": {
      "author": "buresin.eduard (https://sketchfab.com/buresin.eduard)",
      "license": "CC-BY-4.0 (http://creativecommons.org/licenses/by/4.0/)",
      "source": "https://sketchfab.com/3d-models/chair-0b772cd2d7db41098a28b158bbe30286",
      "title": "Chair"
    },
    "generator": "Sketchfab-14.27.0",
    "version": "2.0"
  },
  "bufferViews": [
    {
      "buffer": 0,
      "byteLength": 187968,
      "name": "floatBufferViews",
      "target": 34963
    },
    {
      "buffer": 0,
      "byteLength": 221112,
      "byteOffset": 187968,
      "byteStride": 8,
      "name": "floatBufferViews",
      "target": 34962
    },
    {
      "buffer": 0,
      "byteLength": 221112,
      "byteOffset": 409080,
      "byteStride": 12,
      "name": "floatBufferViews",
      "target": 34962
    },
    {
      "buffer": 0,
      "byteLength": 147408,
      "byteOffset": 630192,
      "byteStride": 16,
      "name": "floatBufferViews",
      "target": 34962
    }
  ],
  "buffers": [
    {
      "byteLength": 777600,
      "uri": "scene.bin"
    }
  ],
  "images": [
    {
      "uri": "textures/LeatherChair_baseColor.png"
    },
    {
      "uri": "textures/LeatherChair_metallicRoughness.png"
    },
    {
      "uri": "textures/LeatherChair_normal.png"
    }
  ],
  "materials": [
    {
      "doubleSided": true,
      "name": "LeatherChair",
      "normalTexture": {
        "index": 2
      },
      "pbrMetallicRoughness": {
        "baseColorTexture": {
          "index": 0
        },
        "metallicRoughnessTexture": {
          "index": 1
        }
      }
    }
  ],
  "meshes": [
    {
      "name": "LeatherChair_LeatherChair_0",
      "primitives": [
        {
          "attributes": {
            "NORMAL": 1,
            "POSITION": 0,
            "TANGENT": 2,
            "TEXCOORD_0": 3,
            "TEXCOORD_1": 4,
            "TEXCOORD_2": 5
          },
          "indices": 6,
          "material": 0,
          "mode": 4
        }
      ]
    }
  ],
  "nodes": [
    {
      "children": [
        1
      ],
      "matrix": [
        1.1346737146377563,
        0.0,
        0.0,
        0.0,
        0.0,
        2.519481766855583e-16,
        -1.1346737146377563,
        0.0,
        0.0,
        1.1346737146377563,
        2.519481766855583e-16,
        0.0,
        0.0,
        0.0,
        0.0,
        1.0
      ],
      "name": "Sketchfab_model"
    },
    {
      "children": [
        2
      ],
      "matrix": [
        0.009999999776482582,
        0.0,
        0.0,
        0.0,
        0.0,
        0.0,
        0.009999999776482582,
        0.0,
        0.0,
        -0.009999999776482582,
        0.0,
        0.0,
        0.0,
        0.0,
        0.0,
        1.0
      ],
      "name": "4c30fa9153b940e6b7d0e3a0f00ce4d3.fbx"
    },
    {
      "children": [
        3
      ],
      "name": "RootNode"
    },
    {
      "children": [
        4
      ],
      "matrix": [
        0.46272361278533936,
        0.0,
        0.0,
        0.0,
        0.0,
        -7.816479500460059e-08,
        -0.4797720909118589,
        0.0,
        0.0,
        22.935890197753604,
        -3.736730813474513e-06,
        0.0,
        0.0,
        33.33525466918945,
        0.0,
        1.0
      ],
      "name": "LeatherChair"
    },
    {
      "mesh": 0,
      "name": "LeatherChair_LeatherChair_0"
    }
  ],
  "samplers": [
    {
      "magFilter": 9729,
      "minFilter": 9987,
      "wrapS": 10497,
      "wrapT": 10497
    }
  ],
  "scene": 0,
  "scenes": [
    {
      "name": "Sketchfab_Scene",
      "nodes": [
        0
      ]
    }
  ],
  "textures": [
    {
      "sampler": 0,
      "source": 0
    },
    {
      "sampler": 0,
      "source": 1
    },
    {
      "sampler": 0,
      "source": 2
    }
  ]
}
